<svg width="352" height="89" viewBox="0 0 352 89" fill="none" xmlns="http://www.w3.org/2000/svg">
<path d="M282.91 85.1934H281.046L285.234 73.557H287.262L291.45 85.1934H289.586L286.296 75.6706H286.205L282.91 85.1934ZM283.222 80.6365H289.268V82.1138H283.222V80.6365ZM296.81 85.1934V73.557H298.566V83.682H303.838V85.1934H296.81ZM309.521 85.1934V73.557H313.669C314.574 73.557 315.324 73.7218 315.919 74.0513C316.514 74.3809 316.959 74.8316 317.254 75.4036C317.55 75.9718 317.697 76.6119 317.697 77.324C317.697 78.0399 317.548 78.6839 317.248 79.2559C316.953 79.824 316.506 80.2748 315.908 80.6081C315.313 80.9377 314.565 81.1025 313.663 81.1025H310.811V79.6138H313.504C314.076 79.6138 314.54 79.5153 314.896 79.3184C315.252 79.1176 315.514 78.8449 315.68 78.5002C315.847 78.1555 315.93 77.7634 315.93 77.324C315.93 76.8846 315.847 76.4945 315.68 76.1536C315.514 75.8127 315.25 75.5456 314.891 75.3525C314.534 75.1593 314.065 75.0627 313.481 75.0627H311.277V85.1934H309.521ZM323.436 85.1934V73.557H325.191V78.6138H330.992V73.557H332.754V85.1934H330.992V80.1195H325.191V85.1934H323.436ZM339.974 85.1934H338.11L342.297 73.557H344.326L348.513 85.1934H346.65L343.36 75.6706H343.269L339.974 85.1934ZM340.286 80.6365H346.332V82.1138H340.286V80.6365Z" fill="#006FC2"/>
<path d="M5.00121 57.7695C5.0003 61.4434 4.99902 68.791 5.00121 68.791H16.0187V57.7695H5.00121Z" fill="#0A0A0A"/>
<path d="M50.6924 74.5195H50.293L45.6328 66.5127L67.584 4H75.4561L50.6924 74.5195Z" fill="#006FC2"/>
<path d="M134.04 12.043H142.166V66.3525H134.665L107.08 26.4995H106.533V66.3525L98.4062 52.1304V12.043H105.908L133.571 51.896H134.04V12.043Z" fill="#0A0A0A"/>
<path d="M189.223 12.043C201.882 12.043 208.056 19.6229 208.056 29.6252C208.056 39.6275 201.804 47.2074 189.223 47.2074H178.049V66.3525L169.922 52.1304V12.043H189.223ZM188.442 40.3308C196.491 40.3308 199.773 35.7985 199.773 29.6252C199.773 23.4519 196.491 19.0759 188.364 19.0759H178.049V40.3308H188.442Z" fill="#0A0A0A"/>
<path d="M274.893 12.043H284.818V66.3525H277.081V27.0465H276.534L260.515 66.2743H254.107L238.088 27.0465H237.541V66.3525H237.463L229.805 52.99V12.043H239.729L256.999 54.2403H257.624L274.893 12.043Z" fill="#0A0A0A"/>
<path d="M329.014 39.3149L345.972 66.4306H336.438L323.466 45.5664H322.997L309.947 66.4306H309.869L305.337 58.6944L317.762 39.3149L300.57 12.1992H310.026L322.997 33.4542H323.466L336.438 12.1992H345.893L329.014 39.3149Z" fill="#0A0A0A"/>
</svg>
