<svg width="352" height="89" viewBox="0 0 352 89" fill="none" xmlns="http://www.w3.org/2000/svg">
<path d="M282.738 85.1934H280.874L285.062 73.557H287.09L291.278 85.1934H289.414L286.124 75.6706H286.033L282.738 85.1934ZM283.05 80.6365H289.096V82.1138H283.05V80.6365ZM296.638 85.1934V73.557H298.394V83.682H303.667V85.1934H296.638ZM309.349 85.1934V73.557H313.497C314.402 73.557 315.152 73.7218 315.747 74.0513C316.342 74.3809 316.787 74.8316 317.082 75.4036C317.378 75.9718 317.525 76.6119 317.525 77.324C317.525 78.0399 317.376 78.6839 317.077 79.2559C316.781 79.824 316.334 80.2748 315.736 80.6081C315.141 80.9377 314.393 81.1025 313.491 81.1025H310.639V79.6138H313.332C313.904 79.6138 314.368 79.5153 314.724 79.3184C315.08 79.1176 315.342 78.8449 315.508 78.5002C315.675 78.1555 315.758 77.7634 315.758 77.324C315.758 76.8846 315.675 76.4945 315.508 76.1536C315.342 75.8127 315.079 75.5456 314.719 75.3525C314.363 75.1593 313.893 75.0627 313.31 75.0627H311.105V85.1934H309.349ZM323.264 85.1934V73.557H325.019V78.6138H330.821V73.557H332.582V85.1934H330.821V80.1195H325.019V85.1934H323.264ZM339.802 85.1934H337.938L342.126 73.557H344.154L348.341 85.1934H346.478L343.188 75.6706H343.097L339.802 85.1934ZM340.114 80.6365H346.16V82.1138H340.114V80.6365Z" fill="#4EBBEA"/>
<mask id="mask0_2719_24894" style="mask-type:alpha" maskUnits="userSpaceOnUse" x="0" y="2" width="357" height="73">
<path d="M0 2H357V71H267.75L178.5 75H0V2Z" fill="url(#paint0_linear_2719_24894)"/>
</mask>
<g mask="url(#mask0_2719_24894)">
<path d="M4.82934 57.7695C4.82842 61.4434 4.82714 68.791 4.82934 68.791H15.8468V57.7695H4.82934Z" fill="white"/>
<path d="M50.5205 74.5195H50.1211L45.4609 66.5127L67.4121 4H75.2842L50.5205 74.5195Z" fill="#51C9FC"/>
<path d="M133.868 12.043H141.995V66.3525H134.493L106.908 26.4995H106.361V66.3525L98.2344 52.1304V12.043H105.736L133.399 51.896H133.868V12.043Z" fill="white"/>
<path d="M189.051 12.043C201.711 12.043 207.884 19.6229 207.884 29.6252C207.884 39.6275 201.632 47.2074 189.051 47.2074H177.877V66.3525L169.75 52.1304V12.043H189.051ZM188.27 40.3308C196.319 40.3308 199.601 35.7985 199.601 29.6252C199.601 23.4519 196.319 19.0759 188.192 19.0759H177.877V40.3308H188.27Z" fill="white"/>
<path d="M274.721 12.043H284.646V66.3525H276.909V27.0465H276.362L260.343 66.2743H253.935L237.916 27.0465H237.369V66.3525H237.291L229.633 52.99V12.043H239.557L256.827 54.2403H257.452L274.721 12.043Z" fill="white"/>
<path d="M328.843 39.3149L345.8 66.4306H336.266L323.294 45.5664H322.826L309.776 66.4306H309.697L305.165 58.6944L317.59 39.3149L300.398 12.1992H309.854L322.826 33.4542H323.294L336.266 12.1992H345.721L328.843 39.3149Z" fill="white"/>
</g>
<defs>
<linearGradient id="paint0_linear_2719_24894" x1="178.5" y1="75" x2="178.5" y2="36" gradientUnits="userSpaceOnUse">
<stop stop-color="#0F0F0F" stop-opacity="0"/>
<stop offset="1" stop-color="#0F0F0F"/>
</linearGradient>
</defs>
</svg>
